<?xml version="1.0" encoding="utf-8" standalone="no"?>
<!DOCTYPE svg PUBLIC "-//W3C//DTD SVG 1.1//EN"
  "http://www.w3.org/Graphics/SVG/1.1/DTD/svg11.dtd">
<svg xmlns:xlink="http://www.w3.org/1999/xlink" width="460.8pt" height="345.6pt" viewBox="0 0 460.8 345.6" xmlns="http://www.w3.org/2000/svg" version="1.1">
 <metadata>
  <rdf:RDF xmlns:dc="http://purl.org/dc/elements/1.1/" xmlns:cc="http://creativecommons.org/ns#" xmlns:rdf="http://www.w3.org/1999/02/22-rdf-syntax-ns#">
   <cc:Work>
    <dc:type rdf:resource="http://purl.org/dc/dcmitype/StillImage"/>
    <dc:date>2025-07-18T14:20:09.050832</dc:date>
    <dc:format>image/svg+xml</dc:format>
    <dc:creator>
     <cc:Agent>
      <dc:title>Matplotlib v3.10.3, https://matplotlib.org/</dc:title>
     </cc:Agent>
    </dc:creator>
   </cc:Work>
  </rdf:RDF>
 </metadata>
 <defs>
  <style type="text/css">*{stroke-linejoin: round; stroke-linecap: butt}</style>
 </defs>
 <g id="figure_1">
  <g id="patch_1">
   <path d="M 0 345.6 
L 460.8 345.6 
L 460.8 0 
L 0 0 
z
" style="fill: #ffffff"/>
  </g>
  <g id="axes_1">
   <g id="patch_2">
    <path d="M 57.6 99.322435 
L 219.927273 99.322435 
L 219.927273 41.472 
L 57.6 41.472 
z
" style="fill: #ffffff"/>
   </g>
   <g id="matplotlib.axis_1"/>
   <g id="matplotlib.axis_2">
    <g id="text_1">
     <!-- 11101100 -->
     <g transform="translate(51.520313 95.847217) rotate(-90) scale(0.1 -0.1)">
      <defs>
       <path id="DejaVuSans-31" d="M 794 531 
L 1825 531 
L 1825 4091 
L 703 3866 
L 703 4441 
L 1819 4666 
L 2450 4666 
L 2450 531 
L 3481 531 
L 3481 0 
L 794 0 
L 794 531 
z
" transform="scale(0.015625)"/>
       <path id="DejaVuSans-30" d="M 2034 4250 
Q 1547 4250 1301 3770 
Q 1056 3291 1056 2328 
Q 1056 1369 1301 889 
Q 1547 409 2034 409 
Q 2525 409 2770 889 
Q 3016 1369 3016 2328 
Q 3016 3291 2770 3770 
Q 2525 4250 2034 4250 
z
M 2034 4750 
Q 2819 4750 3233 4129 
Q 3647 3509 3647 2328 
Q 3647 1150 3233 529 
Q 2819 -91 2034 -91 
Q 1250 -91 836 529 
Q 422 1150 422 2328 
Q 422 3509 836 4129 
Q 1250 4750 2034 4750 
z
" transform="scale(0.015625)"/>
      </defs>
      <use xlink:href="#DejaVuSans-31"/>
      <use xlink:href="#DejaVuSans-31" transform="translate(63.623047 0)"/>
      <use xlink:href="#DejaVuSans-31" transform="translate(127.246094 0)"/>
      <use xlink:href="#DejaVuSans-30" transform="translate(190.869141 0)"/>
      <use xlink:href="#DejaVuSans-31" transform="translate(254.492188 0)"/>
      <use xlink:href="#DejaVuSans-31" transform="translate(318.115234 0)"/>
      <use xlink:href="#DejaVuSans-30" transform="translate(381.738281 0)"/>
      <use xlink:href="#DejaVuSans-30" transform="translate(445.361328 0)"/>
     </g>
    </g>
   </g>
   <g id="line2d_1">
    <path d="M 64.978512 85.368929 
L 67.99015 47.448037 
L 71.001788 66.298815 
L 74.013426 70.558739 
L 77.025063 80.072024 
L 80.036701 47.100472 
L 83.048339 54.583742 
L 86.059976 64.563824 
L 89.071614 76.20875 
L 92.083252 90.62411 
L 95.09489 75.964445 
L 98.106527 49.428206 
L 101.118165 95.742541 
L 104.129803 89.794448 
L 107.14144 69.616639 
L 110.153078 92.558827 
L 113.164716 71.730291 
L 116.176354 92.611208 
L 119.187991 87.504295 
L 122.199629 95.070409 
L 125.211267 92.418582 
L 128.222904 44.101565 
L 131.234542 51.686768 
L 134.24618 63.406572 
L 137.257818 94.187787 
L 140.269455 58.534912 
L 143.281093 50.904709 
L 146.292731 90.588239 
L 149.304368 66.537121 
L 152.316006 91.767581 
L 155.327644 50.891742 
L 158.339281 78.27663 
L 161.350919 66.201941 
L 164.362557 46.313241 
L 167.374195 80.209074 
L 170.385832 55.657475 
L 173.39747 44.297387 
L 176.409108 45.408818 
L 179.420745 45.47083 
L 182.432383 91.759783 
L 185.444021 82.583009 
L 188.455659 91.231064 
L 191.467296 78.903443 
L 194.478934 71.050114 
L 197.490572 58.776426 
L 200.502209 96.69287 
L 203.513847 61.93338 
L 206.525485 67.863184 
L 209.537123 62.811212 
L 212.54876 95.684959 
" clip-path="url(#pdc10a14ceb)" style="fill: none; stroke: #1f77b4; stroke-width: 1.5; stroke-linecap: square"/>
   </g>
   <g id="patch_3">
    <path d="M 57.6 99.322435 
L 57.6 41.472 
" style="fill: none; stroke: #000000; stroke-width: 0.8; stroke-linejoin: miter; stroke-linecap: square"/>
   </g>
   <g id="patch_4">
    <path d="M 219.927273 99.322435 
L 219.927273 41.472 
" style="fill: none; stroke: #000000; stroke-width: 0.8; stroke-linejoin: miter; stroke-linecap: square"/>
   </g>
   <g id="patch_5">
    <path d="M 57.6 99.322435 
L 219.927273 99.322435 
" style="fill: none; stroke: #000000; stroke-width: 0.8; stroke-linejoin: miter; stroke-linecap: square"/>
   </g>
   <g id="patch_6">
    <path d="M 57.6 41.472 
L 219.927273 41.472 
" style="fill: none; stroke: #000000; stroke-width: 0.8; stroke-linejoin: miter; stroke-linecap: square"/>
   </g>
   <g id="text_2">
    <!-- Group 0 -->
    <g transform="translate(114.775824 35.472) scale(0.12 -0.12)">
     <defs>
      <path id="DejaVuSans-47" d="M 3809 666 
L 3809 1919 
L 2778 1919 
L 2778 2438 
L 4434 2438 
L 4434 434 
Q 4069 175 3628 42 
Q 3188 -91 2688 -91 
Q 1594 -91 976 548 
Q 359 1188 359 2328 
Q 359 3472 976 4111 
Q 1594 4750 2688 4750 
Q 3144 4750 3555 4637 
Q 3966 4525 4313 4306 
L 4313 3634 
Q 3963 3931 3569 4081 
Q 3175 4231 2741 4231 
Q 1884 4231 1454 3753 
Q 1025 3275 1025 2328 
Q 1025 1384 1454 906 
Q 1884 428 2741 428 
Q 3075 428 3337 486 
Q 3600 544 3809 666 
z
" transform="scale(0.015625)"/>
      <path id="DejaVuSans-72" d="M 2631 2963 
Q 2534 3019 2420 3045 
Q 2306 3072 2169 3072 
Q 1681 3072 1420 2755 
Q 1159 2438 1159 1844 
L 1159 0 
L 581 0 
L 581 3500 
L 1159 3500 
L 1159 2956 
Q 1341 3275 1631 3429 
Q 1922 3584 2338 3584 
Q 2397 3584 2469 3576 
Q 2541 3569 2628 3553 
L 2631 2963 
z
" transform="scale(0.015625)"/>
      <path id="DejaVuSans-6f" d="M 1959 3097 
Q 1497 3097 1228 2736 
Q 959 2375 959 1747 
Q 959 1119 1226 758 
Q 1494 397 1959 397 
Q 2419 397 2687 759 
Q 2956 1122 2956 1747 
Q 2956 2369 2687 2733 
Q 2419 3097 1959 3097 
z
M 1959 3584 
Q 2709 3584 3137 3096 
Q 3566 2609 3566 1747 
Q 3566 888 3137 398 
Q 2709 -91 1959 -91 
Q 1206 -91 779 398 
Q 353 888 353 1747 
Q 353 2609 779 3096 
Q 1206 3584 1959 3584 
z
" transform="scale(0.015625)"/>
      <path id="DejaVuSans-75" d="M 544 1381 
L 544 3500 
L 1119 3500 
L 1119 1403 
Q 1119 906 1312 657 
Q 1506 409 1894 409 
Q 2359 409 2629 706 
Q 2900 1003 2900 1516 
L 2900 3500 
L 3475 3500 
L 3475 0 
L 2900 0 
L 2900 538 
Q 2691 219 2414 64 
Q 2138 -91 1772 -91 
Q 1169 -91 856 284 
Q 544 659 544 1381 
z
M 1991 3584 
L 1991 3584 
z
" transform="scale(0.015625)"/>
      <path id="DejaVuSans-70" d="M 1159 525 
L 1159 -1331 
L 581 -1331 
L 581 3500 
L 1159 3500 
L 1159 2969 
Q 1341 3281 1617 3432 
Q 1894 3584 2278 3584 
Q 2916 3584 3314 3078 
Q 3713 2572 3713 1747 
Q 3713 922 3314 415 
Q 2916 -91 2278 -91 
Q 1894 -91 1617 61 
Q 1341 213 1159 525 
z
M 3116 1747 
Q 3116 2381 2855 2742 
Q 2594 3103 2138 3103 
Q 1681 3103 1420 2742 
Q 1159 2381 1159 1747 
Q 1159 1113 1420 752 
Q 1681 391 2138 391 
Q 2594 391 2855 752 
Q 3116 1113 3116 1747 
z
" transform="scale(0.015625)"/>
      <path id="DejaVuSans-20" transform="scale(0.015625)"/>
     </defs>
     <use xlink:href="#DejaVuSans-47"/>
     <use xlink:href="#DejaVuSans-72" transform="translate(77.490234 0)"/>
     <use xlink:href="#DejaVuSans-6f" transform="translate(116.353516 0)"/>
     <use xlink:href="#DejaVuSans-75" transform="translate(177.535156 0)"/>
     <use xlink:href="#DejaVuSans-70" transform="translate(240.914062 0)"/>
     <use xlink:href="#DejaVuSans-20" transform="translate(304.390625 0)"/>
     <use xlink:href="#DejaVuSans-30" transform="translate(336.177734 0)"/>
    </g>
   </g>
  </g>
  <g id="axes_2">
   <g id="patch_7">
    <path d="M 252.392727 99.322435 
L 414.72 99.322435 
L 414.72 41.472 
L 252.392727 41.472 
z
" style="fill: #ffffff"/>
   </g>
   <g id="matplotlib.axis_3"/>
   <g id="matplotlib.axis_4">
    <g id="text_3">
     <!-- 11101101 -->
     <g transform="translate(246.31304 95.847217) rotate(-90) scale(0.1 -0.1)">
      <use xlink:href="#DejaVuSans-31"/>
      <use xlink:href="#DejaVuSans-31" transform="translate(63.623047 0)"/>
      <use xlink:href="#DejaVuSans-31" transform="translate(127.246094 0)"/>
      <use xlink:href="#DejaVuSans-30" transform="translate(190.869141 0)"/>
      <use xlink:href="#DejaVuSans-31" transform="translate(254.492188 0)"/>
      <use xlink:href="#DejaVuSans-31" transform="translate(318.115234 0)"/>
      <use xlink:href="#DejaVuSans-30" transform="translate(381.738281 0)"/>
      <use xlink:href="#DejaVuSans-31" transform="translate(445.361328 0)"/>
     </g>
    </g>
   </g>
   <g id="line2d_2">
    <path d="M 259.77124 60.955769 
L 262.782877 64.387881 
L 265.794515 72.710727 
L 268.806153 85.070166 
L 271.817791 62.222618 
L 274.829428 94.577776 
L 277.841066 91.190244 
L 280.852704 46.620681 
L 283.864341 57.847714 
L 286.875979 68.392245 
L 289.887617 49.684875 
L 292.899255 63.042576 
L 295.910892 84.495126 
L 298.92253 81.231239 
L 301.934168 78.046946 
L 304.945805 82.875365 
L 307.957443 55.178956 
L 310.969081 62.671292 
L 313.980719 80.997224 
L 316.992356 92.116894 
L 320.003994 73.735507 
L 323.015632 59.439428 
L 326.027269 45.609737 
L 329.038907 82.864871 
L 332.050545 44.385368 
L 335.062182 64.368391 
L 338.07382 73.015668 
L 341.085458 94.465627 
L 344.097096 48.855888 
L 347.108733 66.190511 
L 350.120371 45.285334 
L 353.132009 62.721298 
L 356.143646 78.038544 
L 359.155284 59.240488 
L 362.166922 55.443333 
L 365.17856 50.291568 
L 368.190197 75.568525 
L 371.201835 82.039529 
L 374.213473 80.762479 
L 377.22511 95.930935 
L 380.236748 44.101565 
L 383.248386 79.406129 
L 386.260024 76.84224 
L 389.271661 76.203924 
L 392.283299 96.69287 
L 395.294937 44.877696 
L 398.306574 82.105944 
L 401.318212 88.52581 
L 404.32985 71.880102 
L 407.341488 62.247674 
" clip-path="url(#p1cf83a9c10)" style="fill: none; stroke: #1f77b4; stroke-width: 1.5; stroke-linecap: square"/>
   </g>
   <g id="patch_8">
    <path d="M 252.392727 99.322435 
L 252.392727 41.472 
" style="fill: none; stroke: #000000; stroke-width: 0.8; stroke-linejoin: miter; stroke-linecap: square"/>
   </g>
   <g id="patch_9">
    <path d="M 414.72 99.322435 
L 414.72 41.472 
" style="fill: none; stroke: #000000; stroke-width: 0.8; stroke-linejoin: miter; stroke-linecap: square"/>
   </g>
   <g id="patch_10">
    <path d="M 252.392727 99.322435 
L 414.72 99.322435 
" style="fill: none; stroke: #000000; stroke-width: 0.8; stroke-linejoin: miter; stroke-linecap: square"/>
   </g>
   <g id="patch_11">
    <path d="M 252.392727 41.472 
L 414.72 41.472 
" style="fill: none; stroke: #000000; stroke-width: 0.8; stroke-linejoin: miter; stroke-linecap: square"/>
   </g>
   <g id="text_4">
    <!-- Group 1 -->
    <g transform="translate(309.568551 35.472) scale(0.12 -0.12)">
     <use xlink:href="#DejaVuSans-47"/>
     <use xlink:href="#DejaVuSans-72" transform="translate(77.490234 0)"/>
     <use xlink:href="#DejaVuSans-6f" transform="translate(116.353516 0)"/>
     <use xlink:href="#DejaVuSans-75" transform="translate(177.535156 0)"/>
     <use xlink:href="#DejaVuSans-70" transform="translate(240.914062 0)"/>
     <use xlink:href="#DejaVuSans-20" transform="translate(304.390625 0)"/>
     <use xlink:href="#DejaVuSans-31" transform="translate(336.177734 0)"/>
    </g>
   </g>
  </g>
  <g id="axes_3">
   <g id="patch_12">
    <path d="M 57.6 168.742957 
L 219.927273 168.742957 
L 219.927273 110.892522 
L 57.6 110.892522 
z
" style="fill: #ffffff"/>
   </g>
   <g id="matplotlib.axis_5"/>
   <g id="matplotlib.axis_6">
    <g id="text_5">
     <!-- 11101010 -->
     <g transform="translate(51.520313 165.267739) rotate(-90) scale(0.1 -0.1)">
      <use xlink:href="#DejaVuSans-31"/>
      <use xlink:href="#DejaVuSans-31" transform="translate(63.623047 0)"/>
      <use xlink:href="#DejaVuSans-31" transform="translate(127.246094 0)"/>
      <use xlink:href="#DejaVuSans-30" transform="translate(190.869141 0)"/>
      <use xlink:href="#DejaVuSans-31" transform="translate(254.492188 0)"/>
      <use xlink:href="#DejaVuSans-30" transform="translate(318.115234 0)"/>
      <use xlink:href="#DejaVuSans-31" transform="translate(381.738281 0)"/>
      <use xlink:href="#DejaVuSans-30" transform="translate(445.361328 0)"/>
     </g>
    </g>
   </g>
   <g id="line2d_3">
    <path d="M 64.978512 133.273101 
L 67.99015 125.233133 
L 71.001788 117.622046 
L 74.013426 117.877595 
L 77.025063 125.154666 
L 80.036701 118.663834 
L 83.048339 127.488457 
L 86.059976 116.85295 
L 89.071614 116.823829 
L 92.083252 159.104384 
L 95.09489 121.984917 
L 98.106527 143.244254 
L 101.118165 154.675612 
L 104.129803 137.721817 
L 107.14144 121.516943 
L 110.153078 123.988911 
L 113.164716 136.469163 
L 116.176354 141.562579 
L 119.187991 132.001715 
L 122.199629 155.104693 
L 125.211267 153.475977 
L 128.222904 162.897613 
L 131.234542 114.863873 
L 134.24618 161.212077 
L 137.257818 134.307979 
L 140.269455 160.285968 
L 143.281093 150.254855 
L 146.292731 166.113391 
L 149.304368 153.917717 
L 152.316006 132.809408 
L 155.327644 140.109635 
L 158.339281 133.442785 
L 161.350919 132.829044 
L 164.362557 127.26733 
L 167.374195 139.837297 
L 170.385832 140.858815 
L 173.39747 128.14622 
L 176.409108 141.356474 
L 179.420745 119.592481 
L 182.432383 121.863264 
L 185.444021 115.818592 
L 188.455659 165.224793 
L 191.467296 113.522087 
L 194.478934 122.865087 
L 197.490572 146.088247 
L 200.502209 117.666836 
L 203.513847 160.474411 
L 206.525485 151.796805 
L 209.537123 164.992636 
L 212.54876 140.461087 
" clip-path="url(#pb50b7618ad)" style="fill: none; stroke: #1f77b4; stroke-width: 1.5; stroke-linecap: square"/>
   </g>
   <g id="patch_13">
    <path d="M 57.6 168.742957 
L 57.6 110.892522 
" style="fill: none; stroke: #000000; stroke-width: 0.8; stroke-linejoin: miter; stroke-linecap: square"/>
   </g>
   <g id="patch_14">
    <path d="M 219.927273 168.742957 
L 219.927273 110.892522 
" style="fill: none; stroke: #000000; stroke-width: 0.8; stroke-linejoin: miter; stroke-linecap: square"/>
   </g>
   <g id="patch_15">
    <path d="M 57.6 168.742957 
L 219.927273 168.742957 
" style="fill: none; stroke: #000000; stroke-width: 0.8; stroke-linejoin: miter; stroke-linecap: square"/>
   </g>
   <g id="patch_16">
    <path d="M 57.6 110.892522 
L 219.927273 110.892522 
" style="fill: none; stroke: #000000; stroke-width: 0.8; stroke-linejoin: miter; stroke-linecap: square"/>
   </g>
  </g>
  <g id="axes_4">
   <g id="patch_17">
    <path d="M 252.392727 168.742957 
L 414.72 168.742957 
L 414.72 110.892522 
L 252.392727 110.892522 
z
" style="fill: #ffffff"/>
   </g>
   <g id="matplotlib.axis_7"/>
   <g id="matplotlib.axis_8">
    <g id="text_6">
     <!-- 00100101 -->
     <g transform="translate(246.31304 165.267739) rotate(-90) scale(0.1 -0.1)">
      <use xlink:href="#DejaVuSans-30"/>
      <use xlink:href="#DejaVuSans-30" transform="translate(63.623047 0)"/>
      <use xlink:href="#DejaVuSans-31" transform="translate(127.246094 0)"/>
      <use xlink:href="#DejaVuSans-30" transform="translate(190.869141 0)"/>
      <use xlink:href="#DejaVuSans-30" transform="translate(254.492188 0)"/>
      <use xlink:href="#DejaVuSans-31" transform="translate(318.115234 0)"/>
      <use xlink:href="#DejaVuSans-30" transform="translate(381.738281 0)"/>
      <use xlink:href="#DejaVuSans-31" transform="translate(445.361328 0)"/>
     </g>
    </g>
   </g>
   <g id="line2d_4">
    <path d="M 259.77124 118.314034 
L 262.782877 124.872968 
L 265.794515 139.945793 
L 268.806153 113.546539 
L 271.817791 136.818847 
L 274.829428 131.274864 
L 277.841066 122.991306 
L 280.852704 121.041258 
L 283.864341 132.85188 
L 286.875979 126.581451 
L 289.887617 130.371138 
L 292.899255 125.278893 
L 295.910892 152.357238 
L 298.92253 116.550824 
L 301.934168 114.983679 
L 304.945805 125.531889 
L 307.957443 136.124903 
L 310.969081 139.040116 
L 313.980719 127.836056 
L 316.992356 153.588535 
L 320.003994 125.895545 
L 323.015632 141.702118 
L 326.027269 138.116406 
L 329.038907 145.622482 
L 332.050545 152.602433 
L 335.062182 148.905157 
L 338.07382 143.54816 
L 341.085458 140.711487 
L 344.097096 125.194228 
L 347.108733 117.160227 
L 350.120371 113.522087 
L 353.132009 121.190481 
L 356.143646 129.334299 
L 359.155284 133.172001 
L 362.166922 143.912685 
L 365.17856 166.113391 
L 368.190197 115.861308 
L 371.201835 115.420009 
L 374.213473 136.067917 
L 377.22511 142.728391 
L 380.236748 147.123795 
L 383.248386 150.874529 
L 386.260024 152.91045 
L 389.271661 127.944921 
L 392.283299 127.112208 
L 395.294937 117.165492 
L 398.306574 140.141957 
L 401.318212 138.936831 
L 404.32985 147.718914 
L 407.341488 115.003101 
" clip-path="url(#pbcb3179970)" style="fill: none; stroke: #1f77b4; stroke-width: 1.5; stroke-linecap: square"/>
   </g>
   <g id="patch_18">
    <path d="M 252.392727 168.742957 
L 252.392727 110.892522 
" style="fill: none; stroke: #000000; stroke-width: 0.8; stroke-linejoin: miter; stroke-linecap: square"/>
   </g>
   <g id="patch_19">
    <path d="M 414.72 168.742957 
L 414.72 110.892522 
" style="fill: none; stroke: #000000; stroke-width: 0.8; stroke-linejoin: miter; stroke-linecap: square"/>
   </g>
   <g id="patch_20">
    <path d="M 252.392727 168.742957 
L 414.72 168.742957 
" style="fill: none; stroke: #000000; stroke-width: 0.8; stroke-linejoin: miter; stroke-linecap: square"/>
   </g>
   <g id="patch_21">
    <path d="M 252.392727 110.892522 
L 414.72 110.892522 
" style="fill: none; stroke: #000000; stroke-width: 0.8; stroke-linejoin: miter; stroke-linecap: square"/>
   </g>
  </g>
  <g id="axes_5">
   <g id="patch_22">
    <path d="M 57.6 238.163478 
L 219.927273 238.163478 
L 219.927273 180.313043 
L 57.6 180.313043 
z
" style="fill: #ffffff"/>
   </g>
   <g id="matplotlib.axis_9"/>
   <g id="matplotlib.axis_10">
    <g id="text_7">
     <!-- 01110000 -->
     <g transform="translate(51.520313 234.688261) rotate(-90) scale(0.1 -0.1)">
      <use xlink:href="#DejaVuSans-30"/>
      <use xlink:href="#DejaVuSans-31" transform="translate(63.623047 0)"/>
      <use xlink:href="#DejaVuSans-31" transform="translate(127.246094 0)"/>
      <use xlink:href="#DejaVuSans-31" transform="translate(190.869141 0)"/>
      <use xlink:href="#DejaVuSans-30" transform="translate(254.492188 0)"/>
      <use xlink:href="#DejaVuSans-30" transform="translate(318.115234 0)"/>
      <use xlink:href="#DejaVuSans-30" transform="translate(381.738281 0)"/>
      <use xlink:href="#DejaVuSans-30" transform="translate(445.361328 0)"/>
     </g>
    </g>
   </g>
   <g id="line2d_5">
    <path d="M 64.978512 198.819195 
L 67.99015 212.045079 
L 71.001788 232.291295 
L 74.013426 210.519165 
L 77.025063 197.056607 
L 80.036701 229.454946 
L 83.048339 202.616311 
L 86.059976 182.942609 
L 89.071614 196.02008 
L 92.083252 199.765875 
L 95.09489 228.46624 
L 98.106527 207.213541 
L 101.118165 206.474672 
L 104.129803 200.714623 
L 107.14144 229.629063 
L 110.153078 233.045677 
L 113.164716 235.533913 
L 116.176354 202.872365 
L 119.187991 234.167086 
L 122.199629 224.914274 
L 125.211267 218.745104 
L 128.222904 195.871649 
L 131.234542 194.362031 
L 134.24618 191.685525 
L 137.257818 231.863235 
L 140.269455 198.483259 
L 143.281093 206.926352 
L 146.292731 209.096018 
L 149.304368 224.186444 
L 152.316006 227.694101 
L 155.327644 190.253272 
L 158.339281 205.535791 
L 161.350919 227.620826 
L 164.362557 226.302915 
L 167.374195 188.306853 
L 170.385832 191.172386 
L 173.39747 199.020692 
L 176.409108 186.870375 
L 179.420745 205.416786 
L 182.432383 188.583158 
L 185.444021 213.038865 
L 188.455659 195.960184 
L 191.467296 214.536975 
L 194.478934 189.109223 
L 197.490572 234.684045 
L 200.502209 232.383813 
L 203.513847 203.671751 
L 206.525485 195.727714 
L 209.537123 196.164137 
L 212.54876 208.535103 
" clip-path="url(#p6da575885e)" style="fill: none; stroke: #1f77b4; stroke-width: 1.5; stroke-linecap: square"/>
   </g>
   <g id="patch_23">
    <path d="M 57.6 238.163478 
L 57.6 180.313043 
" style="fill: none; stroke: #000000; stroke-width: 0.8; stroke-linejoin: miter; stroke-linecap: square"/>
   </g>
   <g id="patch_24">
    <path d="M 219.927273 238.163478 
L 219.927273 180.313043 
" style="fill: none; stroke: #000000; stroke-width: 0.8; stroke-linejoin: miter; stroke-linecap: square"/>
   </g>
   <g id="patch_25">
    <path d="M 57.6 238.163478 
L 219.927273 238.163478 
" style="fill: none; stroke: #000000; stroke-width: 0.8; stroke-linejoin: miter; stroke-linecap: square"/>
   </g>
   <g id="patch_26">
    <path d="M 57.6 180.313043 
L 219.927273 180.313043 
" style="fill: none; stroke: #000000; stroke-width: 0.8; stroke-linejoin: miter; stroke-linecap: square"/>
   </g>
  </g>
  <g id="axes_6">
   <g id="patch_27">
    <path d="M 252.392727 238.163478 
L 414.72 238.163478 
L 414.72 180.313043 
L 252.392727 180.313043 
z
" style="fill: #ffffff"/>
   </g>
   <g id="matplotlib.axis_11"/>
   <g id="matplotlib.axis_12">
    <g id="text_8">
     <!-- 00010101 -->
     <g transform="translate(246.31304 234.688261) rotate(-90) scale(0.1 -0.1)">
      <use xlink:href="#DejaVuSans-30"/>
      <use xlink:href="#DejaVuSans-30" transform="translate(63.623047 0)"/>
      <use xlink:href="#DejaVuSans-30" transform="translate(127.246094 0)"/>
      <use xlink:href="#DejaVuSans-31" transform="translate(190.869141 0)"/>
      <use xlink:href="#DejaVuSans-30" transform="translate(254.492188 0)"/>
      <use xlink:href="#DejaVuSans-31" transform="translate(318.115234 0)"/>
      <use xlink:href="#DejaVuSans-30" transform="translate(381.738281 0)"/>
      <use xlink:href="#DejaVuSans-31" transform="translate(445.361328 0)"/>
     </g>
    </g>
   </g>
   <g id="line2d_6">
    <path d="M 259.77124 209.141616 
L 262.782877 213.701295 
L 265.794515 195.117486 
L 268.806153 191.147485 
L 271.817791 228.944862 
L 274.829428 185.099816 
L 277.841066 207.655238 
L 280.852704 188.236067 
L 283.864341 206.912918 
L 286.875979 235.533913 
L 289.887617 205.087382 
L 292.899255 228.810438 
L 295.910892 188.31716 
L 298.92253 196.742836 
L 301.934168 203.997416 
L 304.945805 203.779539 
L 307.957443 218.643927 
L 310.969081 200.763982 
L 313.980719 220.963772 
L 316.992356 216.881656 
L 320.003994 203.743907 
L 323.015632 205.528204 
L 326.027269 215.531941 
L 329.038907 185.729663 
L 332.050545 226.910148 
L 335.062182 217.660765 
L 338.07382 221.652094 
L 341.085458 211.284267 
L 344.097096 187.942859 
L 347.108733 204.065444 
L 350.120371 204.083943 
L 353.132009 199.468129 
L 356.143646 183.535245 
L 359.155284 222.249347 
L 362.166922 187.904946 
L 365.17856 205.959587 
L 368.190197 220.386354 
L 371.201835 216.640791 
L 374.213473 234.394332 
L 377.22511 187.54992 
L 380.236748 229.360098 
L 383.248386 183.493642 
L 386.260024 211.174461 
L 389.271661 204.022094 
L 392.283299 210.586993 
L 395.294937 201.879572 
L 398.306574 192.326554 
L 401.318212 182.942609 
L 404.32985 210.256721 
L 407.341488 228.025101 
" clip-path="url(#p311d7e8c8d)" style="fill: none; stroke: #1f77b4; stroke-width: 1.5; stroke-linecap: square"/>
   </g>
   <g id="patch_28">
    <path d="M 252.392727 238.163478 
L 252.392727 180.313043 
" style="fill: none; stroke: #000000; stroke-width: 0.8; stroke-linejoin: miter; stroke-linecap: square"/>
   </g>
   <g id="patch_29">
    <path d="M 414.72 238.163478 
L 414.72 180.313043 
" style="fill: none; stroke: #000000; stroke-width: 0.8; stroke-linejoin: miter; stroke-linecap: square"/>
   </g>
   <g id="patch_30">
    <path d="M 252.392727 238.163478 
L 414.72 238.163478 
" style="fill: none; stroke: #000000; stroke-width: 0.8; stroke-linejoin: miter; stroke-linecap: square"/>
   </g>
   <g id="patch_31">
    <path d="M 252.392727 180.313043 
L 414.72 180.313043 
" style="fill: none; stroke: #000000; stroke-width: 0.8; stroke-linejoin: miter; stroke-linecap: square"/>
   </g>
  </g>
  <g id="axes_7">
   <g id="patch_32">
    <path d="M 57.6 307.584 
L 219.927273 307.584 
L 219.927273 249.733565 
L 57.6 249.733565 
z
" style="fill: #ffffff"/>
   </g>
   <g id="matplotlib.axis_13"/>
   <g id="matplotlib.axis_14">
    <g id="text_9">
     <!-- mean 0 -->
     <g transform="translate(51.520313 297.608783) rotate(-90) scale(0.1 -0.1)">
      <defs>
       <path id="DejaVuSans-6d" d="M 3328 2828 
Q 3544 3216 3844 3400 
Q 4144 3584 4550 3584 
Q 5097 3584 5394 3201 
Q 5691 2819 5691 2113 
L 5691 0 
L 5113 0 
L 5113 2094 
Q 5113 2597 4934 2840 
Q 4756 3084 4391 3084 
Q 3944 3084 3684 2787 
Q 3425 2491 3425 1978 
L 3425 0 
L 2847 0 
L 2847 2094 
Q 2847 2600 2669 2842 
Q 2491 3084 2119 3084 
Q 1678 3084 1418 2786 
Q 1159 2488 1159 1978 
L 1159 0 
L 581 0 
L 581 3500 
L 1159 3500 
L 1159 2956 
Q 1356 3278 1631 3431 
Q 1906 3584 2284 3584 
Q 2666 3584 2933 3390 
Q 3200 3197 3328 2828 
z
" transform="scale(0.015625)"/>
       <path id="DejaVuSans-65" d="M 3597 1894 
L 3597 1613 
L 953 1613 
Q 991 1019 1311 708 
Q 1631 397 2203 397 
Q 2534 397 2845 478 
Q 3156 559 3463 722 
L 3463 178 
Q 3153 47 2828 -22 
Q 2503 -91 2169 -91 
Q 1331 -91 842 396 
Q 353 884 353 1716 
Q 353 2575 817 3079 
Q 1281 3584 2069 3584 
Q 2775 3584 3186 3129 
Q 3597 2675 3597 1894 
z
M 3022 2063 
Q 3016 2534 2758 2815 
Q 2500 3097 2075 3097 
Q 1594 3097 1305 2825 
Q 1016 2553 972 2059 
L 3022 2063 
z
" transform="scale(0.015625)"/>
       <path id="DejaVuSans-61" d="M 2194 1759 
Q 1497 1759 1228 1600 
Q 959 1441 959 1056 
Q 959 750 1161 570 
Q 1363 391 1709 391 
Q 2188 391 2477 730 
Q 2766 1069 2766 1631 
L 2766 1759 
L 2194 1759 
z
M 3341 1997 
L 3341 0 
L 2766 0 
L 2766 531 
Q 2569 213 2275 61 
Q 1981 -91 1556 -91 
Q 1019 -91 701 211 
Q 384 513 384 1019 
Q 384 1609 779 1909 
Q 1175 2209 1959 2209 
L 2766 2209 
L 2766 2266 
Q 2766 2663 2505 2880 
Q 2244 3097 1772 3097 
Q 1472 3097 1187 3025 
Q 903 2953 641 2809 
L 641 3341 
Q 956 3463 1253 3523 
Q 1550 3584 1831 3584 
Q 2591 3584 2966 3190 
Q 3341 2797 3341 1997 
z
" transform="scale(0.015625)"/>
       <path id="DejaVuSans-6e" d="M 3513 2113 
L 3513 0 
L 2938 0 
L 2938 2094 
Q 2938 2591 2744 2837 
Q 2550 3084 2163 3084 
Q 1697 3084 1428 2787 
Q 1159 2491 1159 1978 
L 1159 0 
L 581 0 
L 581 3500 
L 1159 3500 
L 1159 2956 
Q 1366 3272 1645 3428 
Q 1925 3584 2291 3584 
Q 2894 3584 3203 3211 
Q 3513 2838 3513 2113 
z
" transform="scale(0.015625)"/>
      </defs>
      <use xlink:href="#DejaVuSans-6d"/>
      <use xlink:href="#DejaVuSans-65" transform="translate(97.412109 0)"/>
      <use xlink:href="#DejaVuSans-61" transform="translate(158.935547 0)"/>
      <use xlink:href="#DejaVuSans-6e" transform="translate(220.214844 0)"/>
      <use xlink:href="#DejaVuSans-20" transform="translate(283.59375 0)"/>
      <use xlink:href="#DejaVuSans-30" transform="translate(315.380859 0)"/>
     </g>
    </g>
   </g>
   <g id="line2d_7">
    <path d="M 64.978512 296.725561 
L 67.99015 273.076669 
L 71.001788 293.896514 
L 74.013426 265.479151 
L 77.025063 290.51607 
L 80.036701 282.690204 
L 83.048339 278.997183 
L 86.059976 279.673911 
L 89.071614 273.320125 
L 92.083252 281.188796 
L 95.09489 273.639129 
L 98.106527 274.236517 
L 101.118165 255.69428 
L 104.129803 282.432269 
L 107.14144 284.867039 
L 110.153078 272.313403 
L 113.164716 276.325558 
L 116.176354 283.526344 
L 119.187991 277.181725 
L 122.199629 284.620305 
L 125.211267 292.676465 
L 128.222904 273.084964 
L 131.234542 268.926707 
L 134.24618 276.075068 
L 137.257818 278.997445 
L 140.269455 283.990837 
L 143.281093 289.530349 
L 146.292731 293.781167 
L 149.304368 273.222487 
L 152.316006 289.311137 
L 155.327644 270.52963 
L 158.339281 263.982983 
L 161.350919 267.801766 
L 164.362557 277.284601 
L 167.374195 272.667376 
L 170.385832 304.954435 
L 173.39747 282.283229 
L 176.409108 282.090017 
L 179.420745 269.018813 
L 182.432383 252.36313 
L 185.444021 281.133669 
L 188.455659 270.140076 
L 191.467296 295.70423 
L 194.478934 270.312623 
L 197.490572 274.952797 
L 200.502209 275.056834 
L 203.513847 273.681205 
L 206.525485 297.762167 
L 209.537123 285.737156 
L 212.54876 268.846545 
" clip-path="url(#p7dcbe9d9b5)" style="fill: none; stroke: #1f77b4; stroke-width: 1.5; stroke-linecap: square"/>
   </g>
   <g id="patch_33">
    <path d="M 57.6 307.584 
L 57.6 249.733565 
" style="fill: none; stroke: #000000; stroke-width: 0.8; stroke-linejoin: miter; stroke-linecap: square"/>
   </g>
   <g id="patch_34">
    <path d="M 219.927273 307.584 
L 219.927273 249.733565 
" style="fill: none; stroke: #000000; stroke-width: 0.8; stroke-linejoin: miter; stroke-linecap: square"/>
   </g>
   <g id="patch_35">
    <path d="M 57.6 307.584 
L 219.927273 307.584 
" style="fill: none; stroke: #000000; stroke-width: 0.8; stroke-linejoin: miter; stroke-linecap: square"/>
   </g>
   <g id="patch_36">
    <path d="M 57.6 249.733565 
L 219.927273 249.733565 
" style="fill: none; stroke: #000000; stroke-width: 0.8; stroke-linejoin: miter; stroke-linecap: square"/>
   </g>
  </g>
  <g id="axes_8">
   <g id="patch_37">
    <path d="M 252.392727 307.584 
L 414.72 307.584 
L 414.72 249.733565 
L 252.392727 249.733565 
z
" style="fill: #ffffff"/>
   </g>
   <g id="matplotlib.axis_15"/>
   <g id="matplotlib.axis_16">
    <g id="text_10">
     <!-- mean 1 -->
     <g transform="translate(246.31304 297.608783) rotate(-90) scale(0.1 -0.1)">
      <use xlink:href="#DejaVuSans-6d"/>
      <use xlink:href="#DejaVuSans-65" transform="translate(97.412109 0)"/>
      <use xlink:href="#DejaVuSans-61" transform="translate(158.935547 0)"/>
      <use xlink:href="#DejaVuSans-6e" transform="translate(220.214844 0)"/>
      <use xlink:href="#DejaVuSans-20" transform="translate(283.59375 0)"/>
      <use xlink:href="#DejaVuSans-31" transform="translate(315.380859 0)"/>
     </g>
    </g>
   </g>
   <g id="line2d_8">
    <path d="M 259.77124 268.950426 
L 262.782877 299.519672 
L 265.794515 252.36313 
L 268.806153 260.255202 
L 271.817791 273.115204 
L 274.829428 279.156978 
L 277.841066 285.54769 
L 280.852704 284.723444 
L 283.864341 288.882529 
L 286.875979 284.714702 
L 289.887617 274.988387 
L 292.899255 278.317654 
L 295.910892 269.89556 
L 298.92253 293.025954 
L 301.934168 271.94327 
L 304.945805 261.22202 
L 307.957443 264.121653 
L 310.969081 283.149763 
L 313.980719 304.954435 
L 316.992356 281.741846 
L 320.003994 257.558807 
L 323.015632 283.219513 
L 326.027269 287.557173 
L 329.038907 299.308392 
L 332.050545 262.757228 
L 335.062182 287.626118 
L 338.07382 275.743612 
L 341.085458 298.444038 
L 344.097096 269.571167 
L 347.108733 293.728964 
L 350.120371 266.957366 
L 353.132009 277.909262 
L 356.143646 282.520896 
L 359.155284 275.444083 
L 362.166922 273.330939 
L 365.17856 274.358368 
L 368.190197 285.771797 
L 371.201835 276.724214 
L 374.213473 302.987595 
L 377.22511 281.438773 
L 380.236748 294.976598 
L 383.248386 270.386107 
L 386.260024 271.57251 
L 389.271661 277.804843 
L 392.283299 302.92689 
L 395.294937 281.209213 
L 398.306574 269.910202 
L 401.318212 294.021244 
L 404.32985 277.610627 
L 407.341488 277.306446 
" clip-path="url(#p9465b761b6)" style="fill: none; stroke: #1f77b4; stroke-width: 1.5; stroke-linecap: square"/>
   </g>
   <g id="patch_38">
    <path d="M 252.392727 307.584 
L 252.392727 249.733565 
" style="fill: none; stroke: #000000; stroke-width: 0.8; stroke-linejoin: miter; stroke-linecap: square"/>
   </g>
   <g id="patch_39">
    <path d="M 414.72 307.584 
L 414.72 249.733565 
" style="fill: none; stroke: #000000; stroke-width: 0.8; stroke-linejoin: miter; stroke-linecap: square"/>
   </g>
   <g id="patch_40">
    <path d="M 252.392727 307.584 
L 414.72 307.584 
" style="fill: none; stroke: #000000; stroke-width: 0.8; stroke-linejoin: miter; stroke-linecap: square"/>
   </g>
   <g id="patch_41">
    <path d="M 252.392727 249.733565 
L 414.72 249.733565 
" style="fill: none; stroke: #000000; stroke-width: 0.8; stroke-linejoin: miter; stroke-linecap: square"/>
   </g>
  </g>
  <g id="text_11">
   <!-- Guess 0xab -->
   <g transform="translate(195.24375 16.030125) scale(0.12 -0.12)">
    <defs>
     <path id="DejaVuSans-73" d="M 2834 3397 
L 2834 2853 
Q 2591 2978 2328 3040 
Q 2066 3103 1784 3103 
Q 1356 3103 1142 2972 
Q 928 2841 928 2578 
Q 928 2378 1081 2264 
Q 1234 2150 1697 2047 
L 1894 2003 
Q 2506 1872 2764 1633 
Q 3022 1394 3022 966 
Q 3022 478 2636 193 
Q 2250 -91 1575 -91 
Q 1294 -91 989 -36 
Q 684 19 347 128 
L 347 722 
Q 666 556 975 473 
Q 1284 391 1588 391 
Q 1994 391 2212 530 
Q 2431 669 2431 922 
Q 2431 1156 2273 1281 
Q 2116 1406 1581 1522 
L 1381 1569 
Q 847 1681 609 1914 
Q 372 2147 372 2553 
Q 372 3047 722 3315 
Q 1072 3584 1716 3584 
Q 2034 3584 2315 3537 
Q 2597 3491 2834 3397 
z
" transform="scale(0.015625)"/>
     <path id="DejaVuSans-78" d="M 3513 3500 
L 2247 1797 
L 3578 0 
L 2900 0 
L 1881 1375 
L 863 0 
L 184 0 
L 1544 1831 
L 300 3500 
L 978 3500 
L 1906 2253 
L 2834 3500 
L 3513 3500 
z
" transform="scale(0.015625)"/>
     <path id="DejaVuSans-62" d="M 3116 1747 
Q 3116 2381 2855 2742 
Q 2594 3103 2138 3103 
Q 1681 3103 1420 2742 
Q 1159 2381 1159 1747 
Q 1159 1113 1420 752 
Q 1681 391 2138 391 
Q 2594 391 2855 752 
Q 3116 1113 3116 1747 
z
M 1159 2969 
Q 1341 3281 1617 3432 
Q 1894 3584 2278 3584 
Q 2916 3584 3314 3078 
Q 3713 2572 3713 1747 
Q 3713 922 3314 415 
Q 2916 -91 2278 -91 
Q 1894 -91 1617 61 
Q 1341 213 1159 525 
L 1159 0 
L 581 0 
L 581 4863 
L 1159 4863 
L 1159 2969 
z
" transform="scale(0.015625)"/>
    </defs>
    <use xlink:href="#DejaVuSans-47"/>
    <use xlink:href="#DejaVuSans-75" transform="translate(77.490234 0)"/>
    <use xlink:href="#DejaVuSans-65" transform="translate(140.869141 0)"/>
    <use xlink:href="#DejaVuSans-73" transform="translate(202.392578 0)"/>
    <use xlink:href="#DejaVuSans-73" transform="translate(254.492188 0)"/>
    <use xlink:href="#DejaVuSans-20" transform="translate(306.591797 0)"/>
    <use xlink:href="#DejaVuSans-30" transform="translate(338.378906 0)"/>
    <use xlink:href="#DejaVuSans-78" transform="translate(402.001953 0)"/>
    <use xlink:href="#DejaVuSans-61" transform="translate(461.181641 0)"/>
    <use xlink:href="#DejaVuSans-62" transform="translate(522.460938 0)"/>
   </g>
  </g>
 </g>
 <defs>
  <clipPath id="pdc10a14ceb">
   <rect x="57.6" y="41.472" width="162.327273" height="57.850435"/>
  </clipPath>
  <clipPath id="p1cf83a9c10">
   <rect x="252.392727" y="41.472" width="162.327273" height="57.850435"/>
  </clipPath>
  <clipPath id="pb50b7618ad">
   <rect x="57.6" y="110.892522" width="162.327273" height="57.850435"/>
  </clipPath>
  <clipPath id="pbcb3179970">
   <rect x="252.392727" y="110.892522" width="162.327273" height="57.850435"/>
  </clipPath>
  <clipPath id="p6da575885e">
   <rect x="57.6" y="180.313043" width="162.327273" height="57.850435"/>
  </clipPath>
  <clipPath id="p311d7e8c8d">
   <rect x="252.392727" y="180.313043" width="162.327273" height="57.850435"/>
  </clipPath>
  <clipPath id="p7dcbe9d9b5">
   <rect x="57.6" y="249.733565" width="162.327273" height="57.850435"/>
  </clipPath>
  <clipPath id="p9465b761b6">
   <rect x="252.392727" y="249.733565" width="162.327273" height="57.850435"/>
  </clipPath>
 </defs>
</svg>
